<?xml version="1.0" encoding="UTF-8"?><svg id="Layer_1" xmlns="http://www.w3.org/2000/svg" viewBox="0 0 455.68 455.68"><defs><style>.cls-1{fill:#f9f9fb;}.cls-2{fill:#f60;}</style></defs><rect class="cls-2" x="-1.67" y="3.11" width="455.68" height="455.68"/><path class="cls-1" d="M146.36,258.98c-7.68,1.22-14.93-4.04-16.16-11.71-1.22-7.69,4.04-14.93,11.72-16.16.74-.11,1.49-.17,2.22-.17,6.81,0,12.82,4.95,13.92,11.89,1.23,7.68-4.04,14.93-11.71,16.14Z"/><path class="cls-1" d="M210.81,234.62c-.29-1.86-.95-3.61-1.91-5.16-.96-1.57-2.22-2.93-3.74-4.04-2.44-1.77-5.31-2.69-8.26-2.69-.74,0-1.49.06-2.24.18-3.72.59-6.99,2.59-9.2,5.65-2.22,3.04-3.11,6.78-2.51,10.5.59,3.73,2.59,6.99,5.65,9.21,3.04,2.21,6.78,3.1,10.5,2.51,3.73-.6,6.99-2.6,9.21-5.65,2.21-3.06,3.1-6.79,2.51-10.51ZM210.81,234.62c-.29-1.86-.95-3.61-1.91-5.16-.96-1.57-2.22-2.93-3.74-4.04-2.44-1.77-5.31-2.69-8.26-2.69-.74,0-1.49.06-2.24.18-3.72.59-6.99,2.59-9.2,5.65-2.22,3.04-3.11,6.78-2.51,10.5.59,3.73,2.59,6.99,5.65,9.21,3.04,2.21,6.78,3.1,10.5,2.51,3.73-.6,6.99-2.6,9.21-5.65,2.21-3.06,3.1-6.79,2.51-10.51ZM210.81,234.62c-.29-1.86-.95-3.61-1.91-5.16-.96-1.57-2.22-2.93-3.74-4.04-2.44-1.77-5.31-2.69-8.26-2.69-.74,0-1.49.06-2.24.18-3.72.59-6.99,2.59-9.2,5.65-2.22,3.04-3.11,6.78-2.51,10.5.59,3.73,2.59,6.99,5.65,9.21,3.04,2.21,6.78,3.1,10.5,2.51,3.73-.6,6.99-2.6,9.21-5.65,2.21-3.06,3.1-6.79,2.51-10.51ZM263.49,226.23c-.29-1.86-.94-3.61-1.89-5.16-.96-1.57-2.22-2.93-3.75-4.04-2.44-1.77-5.3-2.69-8.25-2.69-.74,0-1.5.06-2.25.18-3.72.6-6.99,2.59-9.2,5.65-2.21,3.06-3.1,6.79-2.51,10.51.6,3.72,2.6,6.99,5.65,9.2,3.06,2.21,6.78,3.1,10.51,2.51,3.72-.6,6.99-2.6,9.2-5.65,2.22-3.06,3.11-6.79,2.51-10.51ZM263.49,226.23c-.29-1.86-.94-3.61-1.89-5.16-.96-1.57-2.22-2.93-3.75-4.04-2.44-1.77-5.3-2.69-8.25-2.69-.74,0-1.5.06-2.25.18-3.72.6-6.99,2.59-9.2,5.65-2.21,3.06-3.1,6.79-2.51,10.51.6,3.72,2.6,6.99,5.65,9.2,3.06,2.21,6.78,3.1,10.51,2.51,3.72-.6,6.99-2.6,9.2-5.65,2.22-3.06,3.11-6.79,2.51-10.51ZM210.81,234.62c-.29-1.86-.95-3.61-1.91-5.16-.96-1.57-2.22-2.93-3.74-4.04-2.44-1.77-5.31-2.69-8.26-2.69-.74,0-1.49.06-2.24.18-3.72.59-6.99,2.59-9.2,5.65-2.22,3.04-3.11,6.78-2.51,10.5.59,3.73,2.59,6.99,5.65,9.21,3.04,2.21,6.78,3.1,10.5,2.51,3.73-.6,6.99-2.6,9.21-5.65,2.21-3.06,3.1-6.79,2.51-10.51ZM210.81,234.62c-.29-1.86-.95-3.61-1.91-5.16-.96-1.57-2.22-2.93-3.74-4.04-2.44-1.77-5.31-2.69-8.26-2.69-.74,0-1.49.06-2.24.18-3.72.59-6.99,2.59-9.2,5.65-2.22,3.04-3.11,6.78-2.51,10.5.59,3.73,2.59,6.99,5.65,9.21,3.04,2.21,6.78,3.1,10.5,2.51,3.73-.6,6.99-2.6,9.21-5.65,2.21-3.06,3.1-6.79,2.51-10.51ZM263.49,226.23c-.29-1.86-.94-3.61-1.89-5.16-.96-1.57-2.22-2.93-3.75-4.04-2.44-1.77-5.3-2.69-8.25-2.69-.74,0-1.5.06-2.25.18-3.72.6-6.99,2.59-9.2,5.65-2.21,3.06-3.1,6.79-2.51,10.51.6,3.72,2.6,6.99,5.65,9.2,3.06,2.21,6.78,3.1,10.51,2.51,3.72-.6,6.99-2.6,9.2-5.65,2.22-3.06,3.11-6.79,2.51-10.51ZM263.49,226.23c-.29-1.86-.94-3.61-1.89-5.16-.96-1.57-2.22-2.93-3.75-4.04-2.44-1.77-5.3-2.69-8.25-2.69-.74,0-1.5.06-2.25.18-3.72.6-6.99,2.59-9.2,5.65-2.21,3.06-3.1,6.79-2.51,10.51.6,3.72,2.6,6.99,5.65,9.2,3.06,2.21,6.78,3.1,10.51,2.51,3.72-.6,6.99-2.6,9.2-5.65,2.22-3.06,3.11-6.79,2.51-10.51ZM210.81,234.62c-.29-1.86-.95-3.61-1.91-5.16-.96-1.57-2.22-2.93-3.74-4.04-2.44-1.77-5.31-2.69-8.26-2.69-.74,0-1.49.06-2.24.18-3.72.59-6.99,2.59-9.2,5.65-2.22,3.04-3.11,6.78-2.51,10.5.59,3.73,2.59,6.99,5.65,9.21,3.04,2.21,6.78,3.1,10.5,2.51,3.73-.6,6.99-2.6,9.21-5.65,2.21-3.06,3.1-6.79,2.51-10.51ZM210.81,234.62c-.29-1.86-.95-3.61-1.91-5.16-.96-1.57-2.22-2.93-3.74-4.04-2.44-1.77-5.31-2.69-8.26-2.69-.74,0-1.49.06-2.24.18-3.72.59-6.99,2.59-9.2,5.65-2.22,3.04-3.11,6.78-2.51,10.5.59,3.73,2.59,6.99,5.65,9.21,3.04,2.21,6.78,3.1,10.5,2.51,3.73-.6,6.99-2.6,9.21-5.65,2.21-3.06,3.1-6.79,2.51-10.51ZM263.49,226.23c-.29-1.86-.94-3.61-1.89-5.16-.96-1.57-2.22-2.93-3.75-4.04-2.44-1.77-5.3-2.69-8.25-2.69-.74,0-1.5.06-2.25.18-3.72.6-6.99,2.59-9.2,5.65-2.21,3.06-3.1,6.79-2.51,10.51.6,3.72,2.6,6.99,5.65,9.2,3.06,2.21,6.78,3.1,10.51,2.51,3.72-.6,6.99-2.6,9.2-5.65,2.22-3.06,3.11-6.79,2.51-10.51ZM210.81,234.62c-.29-1.86-.95-3.61-1.91-5.16-.96-1.57-2.22-2.93-3.74-4.04-2.44-1.77-5.31-2.69-8.26-2.69-.74,0-1.49.06-2.24.18-3.72.59-6.99,2.59-9.2,5.65-2.22,3.04-3.11,6.78-2.51,10.5.59,3.73,2.59,6.99,5.65,9.21,3.04,2.21,6.78,3.1,10.5,2.51,3.73-.6,6.99-2.6,9.21-5.65,2.21-3.06,3.1-6.79,2.51-10.51ZM263.49,226.23c-.29-1.86-.94-3.61-1.89-5.16-.96-1.57-2.22-2.93-3.75-4.04-2.44-1.77-5.3-2.69-8.25-2.69-.74,0-1.5.06-2.25.18-3.72.6-6.99,2.59-9.2,5.65-2.21,3.06-3.1,6.79-2.51,10.51.6,3.72,2.6,6.99,5.65,9.2,3.06,2.21,6.78,3.1,10.51,2.51,3.72-.6,6.99-2.6,9.2-5.65,2.22-3.06,3.11-6.79,2.51-10.51ZM210.81,234.62c-.29-1.86-.95-3.61-1.91-5.16-.96-1.57-2.22-2.93-3.74-4.04-2.44-1.77-5.31-2.69-8.26-2.69-.74,0-1.49.06-2.24.18-3.72.59-6.99,2.59-9.2,5.65-2.22,3.04-3.11,6.78-2.51,10.5.59,3.73,2.59,6.99,5.65,9.21,3.04,2.21,6.78,3.1,10.5,2.51,3.73-.6,6.99-2.6,9.21-5.65,2.21-3.06,3.1-6.79,2.51-10.51ZM210.81,234.62c-.29-1.86-.95-3.61-1.91-5.16-.96-1.57-2.22-2.93-3.74-4.04-2.44-1.77-5.31-2.69-8.26-2.69-.74,0-1.49.06-2.24.18-3.72.59-6.99,2.59-9.2,5.65-2.22,3.04-3.11,6.78-2.51,10.5.59,3.73,2.59,6.99,5.65,9.21,3.04,2.21,6.78,3.1,10.5,2.51,3.73-.6,6.99-2.6,9.21-5.65,2.21-3.06,3.1-6.79,2.51-10.51ZM263.49,226.23c-.29-1.86-.94-3.61-1.89-5.16-.96-1.57-2.22-2.93-3.75-4.04-2.44-1.77-5.3-2.69-8.25-2.69-.74,0-1.5.06-2.25.18-3.72.6-6.99,2.59-9.2,5.65-2.21,3.06-3.1,6.79-2.51,10.51.6,3.72,2.6,6.99,5.65,9.2,3.06,2.21,6.78,3.1,10.51,2.51,3.72-.6,6.99-2.6,9.2-5.65,2.22-3.06,3.11-6.79,2.51-10.51ZM263.49,226.23c-.29-1.86-.94-3.61-1.89-5.16-.96-1.57-2.22-2.93-3.75-4.04-2.44-1.77-5.3-2.69-8.25-2.69-.74,0-1.5.06-2.25.18-3.72.6-6.99,2.59-9.2,5.65-2.21,3.06-3.1,6.79-2.51,10.51.6,3.72,2.6,6.99,5.65,9.2,3.06,2.21,6.78,3.1,10.51,2.51,3.72-.6,6.99-2.6,9.2-5.65,2.22-3.06,3.11-6.79,2.51-10.51ZM210.81,234.62c-.29-1.86-.95-3.61-1.91-5.16-.96-1.57-2.22-2.93-3.74-4.04-2.44-1.77-5.31-2.69-8.26-2.69-.74,0-1.49.06-2.24.18-3.72.59-6.99,2.59-9.2,5.65-2.22,3.04-3.11,6.78-2.51,10.5.59,3.73,2.59,6.99,5.65,9.21,3.04,2.21,6.78,3.1,10.5,2.51,3.73-.6,6.99-2.6,9.21-5.65,2.21-3.06,3.1-6.79,2.51-10.51ZM210.81,234.62c-.29-1.86-.95-3.61-1.91-5.16-.96-1.57-2.22-2.93-3.74-4.04-2.44-1.77-5.31-2.69-8.26-2.69-.74,0-1.49.06-2.24.18-3.72.59-6.99,2.59-9.2,5.65-2.22,3.04-3.11,6.78-2.51,10.5.59,3.73,2.59,6.99,5.65,9.21,3.04,2.21,6.78,3.1,10.5,2.51,3.73-.6,6.99-2.6,9.21-5.65,2.21-3.06,3.1-6.79,2.51-10.51ZM210.81,234.62c-.29-1.86-.95-3.61-1.91-5.16-.96-1.57-2.22-2.93-3.74-4.04-2.44-1.77-5.31-2.69-8.26-2.69-.74,0-1.49.06-2.24.18-3.72.59-6.99,2.59-9.2,5.65-2.22,3.04-3.11,6.78-2.51,10.5.59,3.73,2.59,6.99,5.65,9.21,3.04,2.21,6.78,3.1,10.5,2.51,3.73-.6,6.99-2.6,9.21-5.65,2.21-3.06,3.1-6.79,2.51-10.51ZM210.81,234.62c-.29-1.86-.95-3.61-1.91-5.16-.96-1.57-2.22-2.93-3.74-4.04-2.44-1.77-5.31-2.69-8.26-2.69-.74,0-1.49.06-2.24.18-3.72.59-6.99,2.59-9.2,5.65-2.22,3.04-3.11,6.78-2.51,10.5.59,3.73,2.59,6.99,5.65,9.21,3.04,2.21,6.78,3.1,10.5,2.51,3.73-.6,6.99-2.6,9.21-5.65,2.21-3.06,3.1-6.79,2.51-10.51ZM210.81,234.62c-.29-1.86-.95-3.61-1.91-5.16-.96-1.57-2.22-2.93-3.74-4.04-2.44-1.77-5.31-2.69-8.26-2.69-.74,0-1.49.06-2.24.18-3.72.59-6.99,2.59-9.2,5.65-2.22,3.04-3.11,6.78-2.51,10.5.59,3.73,2.59,6.99,5.65,9.21,3.04,2.21,6.78,3.1,10.5,2.51,3.73-.6,6.99-2.6,9.21-5.65,2.21-3.06,3.1-6.79,2.51-10.51Z"/><path class="cls-1" d="M146.36,258.98c-7.68,1.22-14.93-4.04-16.16-11.71-1.22-7.69,4.04-14.93,11.72-16.16.74-.11,1.49-.17,2.22-.17,6.81,0,12.82,4.95,13.92,11.89,1.23,7.68-4.04,14.93-11.71,16.14Z"/><path class="cls-1" d="M208.29,245.13c-2.22,3.04-5.48,5.05-9.21,5.65-3.72.59-7.45-.3-10.5-2.51-3.06-2.22-5.06-5.48-5.65-9.21-.6-3.72.29-7.45,2.51-10.5,2.21-3.06,5.48-5.06,9.2-5.65.76-.12,1.5-.18,2.24-.18,2.95,0,5.83.92,8.26,2.69,1.52,1.1,2.78,2.47,3.74,4.04.96,1.56,1.61,3.3,1.91,5.16.59,3.72-.3,7.45-2.51,10.51Z"/><path class="cls-1" d="M260.98,236.74c-2.21,3.04-5.48,5.05-9.2,5.65-3.73.59-7.45-.3-10.51-2.51-3.04-2.21-5.05-5.48-5.65-9.2-.59-3.72.3-7.45,2.51-10.51,2.21-3.06,5.48-5.05,9.2-5.65.76-.12,1.51-.18,2.25-.18,2.95,0,5.82.92,8.25,2.69,1.53,1.1,2.8,2.47,3.75,4.04.96,1.56,1.6,3.3,1.89,5.16.6,3.72-.29,7.45-2.51,10.51Z"/><path class="cls-1" d="M266.28,115.79c-.89.38-1.78.78-2.69,1.17-.89.38-1.8.78-2.72,1.16-1.09.47-2.2.95-3.31,1.42-.91.39-1.83.79-2.76,1.18-.91.39-1.84.78-2.76,1.18-18.88-19.17-45.58-19.12-58.31-11.32-15.73,9.36-21.53,25.68-15.21,42.1-.87.36-1.74.72-2.59,1.09-.88.36-1.75.72-2.62,1.08-1.05.45-2.09.88-3.12,1.32-.87.37-1.74.73-2.59,1.09-.88.37-1.74.74-2.6,1.1-8.99-22.93-.52-47.44,21.16-60.34,18.33-11.26,56.04-11.16,80.13,17.74Z"/><path class="cls-1" d="M336.54,221.71c-3.11-17.78-7.62-34.24-13.53-51.55-10.17-29.69-22.64-51.66-33.27-58.15-5.74-3.6-11.23-1.7-17.23,1.07-2.02.89-4.09,1.79-6.23,2.72-.89.38-1.78.78-2.69,1.17-.89.38-1.8.78-2.72,1.16-1.09.47-2.2.95-3.31,1.42-.91.39-1.83.79-2.76,1.18-.91.39-1.84.78-2.76,1.18-22.43,9.53-48.93,20.45-73.52,30.78.29.76.61,1.51.95,2.27.15.33.29.64.45.98,3.59,7.67,9.05,12.69,15.97,19.06l.97.9c.92.85,1.85,1.7,2.8,2.59,11.32,10.09,24.36,20.09,35.91,28.77,2.98-1.98,6.37-3.3,10-3.89,6.7-1.06,13.4.54,18.89,4.52,5.49,3.99,9.1,9.86,10.17,16.56.21,1.35.32,2.69.32,4.04,0,5.31-1.66,10.47-4.84,14.86-3.98,5.49-9.86,9.1-16.56,10.16-1.35.23-2.71.33-4.05.33-5.31,0-10.46-1.67-14.85-4.85-5.49-3.98-9.1-9.85-10.16-16.55-.77-4.78-.17-9.56,1.69-13.9-12.2-9.17-24.99-19.04-36.38-29.19l-.21-.2c-.81-.77-1.68-1.57-2.54-2.36l-1.09-1.01c-7.46-6.87-14.51-13.36-19.28-23.55-.23-.47-.45-.96-.68-1.44-.36-.8-.7-1.6-1.01-2.4-18.1,7.66-34.44,14.75-46.37,20.39-5.83,2.75-10.62,7.38-13.26,13.26-3.81,8.49-4.45,18.9-4.72,30.48-.22,9.14,1.97,22.29,5.07,36.46,1.13,5.14,2.03,10.33,2.74,15.55l2.44,17.92c1.68,12.34,1.68,24.87,0,37.21l-3.71,27.23c-.15,1.09,1.1,1.82,1.97,1.14l21.72-16.83c.1-.07.19-.15.29-.22,14.79-11.38,32.75-17.88,51.37-19.03,29.85-1.84,71.45-4.45,97.45-6.03,17.14-1.06,31.36-1.94,38.95-2.41,3.38-.26,6.8-.21,9.94-1.32l.08-.03c20.41-8.92,11.07-70.14,7.56-90.43ZM123.59,230.14c3.98-5.49,9.85-9.1,16.55-10.16,13.84-2.21,26.87,7.25,29.06,21.07.21,1.34.32,2.68.32,4,0,12.25-8.92,23.08-21.4,25.06-1.34.21-2.68.32-4,.32-12.25,0-23.07-8.92-25.05-21.4-1.07-6.7.54-13.4,4.52-18.89ZM215.07,254.54c-3.36,3.5-10.18,6.85-14.99,7.47-1.09.14-2.18.21-3.26.21-5.31,0-10.47-1.67-14.85-4.85-5.49-3.98-9.1-9.86-10.17-16.56-1.06-6.69.54-13.4,4.52-18.88,4.59-6.34,11.72-10.17,19.71-10.48,4.37-.17,8.75.83,12.61,2.88,7.25,3.85,12.04,10.61,13.29,18.51,1.26,7.88-1.2,15.78-6.86,21.69ZM327.69,294.42c-8.42,1.97-24.06-34.01-34.93-80.38-10.87-46.37-12.85-85.56-4.43-87.53,8.42-1.97,24.06,34.01,34.93,80.38,10.87,46.37,12.85,85.56,4.43,87.53Z"/></svg>