<?xml version="1.0" encoding="UTF-8"?><svg id="Layer_1" xmlns="http://www.w3.org/2000/svg" viewBox="0 0 878.1 321.14"><defs><style>.cls-1{fill:#f9f9fb;}.cls-2{fill:#f60;}</style></defs><path class="cls-2" d="M792.84,197.1c6.03-.89,10.21-6.51,9.32-12.54-.43-2.92-1.97-5.5-4.33-7.26-2.37-1.76-5.28-2.5-8.2-2.07-2.92.43-5.5,1.97-7.26,4.33-1.41,1.89-2.16,4.13-2.19,6.44,0,.58.03,1.17.12,1.76.8,5.44,5.46,9.38,10.8,9.45.57,0,1.15-.03,1.74-.12ZM786.61,182.73c.92-1.24,2.26-2.04,3.79-2.26,1.52-.22,3.05.16,4.28,1.08,1.23.92,2.04,2.27,2.26,3.79.04.31.06.61.06.91-.02,1.39-.54,2.7-1.41,3.7-.87,1.01-2.09,1.72-3.52,1.93-3.14.46-6.08-1.72-6.54-4.86-.23-1.52.16-3.05,1.08-4.28Z"/><path class="cls-1" d="M698.78,117.43h25.52v56.96h46.22v21.94h-71.74v-78.9Z"/><path class="cls-1" d="M288.72,194.39c-5.6-2.33-10.12-5.73-13.54-10.19-3.42-4.46-5.13-9.65-5.13-15.56h23.19c.31,3.42,1.66,6.1,4.05,8.01,2.39,1.92,5.34,2.88,8.87,2.88,2.8,0,5.08-.62,6.85-1.87,1.76-1.24,2.64-2.96,2.64-5.14s-.85-3.91-2.57-5.21c-1.71-1.29-4.49-2.2-8.33-2.72-11.51-1.35-20.18-3.73-25.99-7.16-5.81-3.42-8.71-9.08-8.71-16.96,0-4.88,1.4-9.18,4.2-12.92,2.8-3.73,6.72-6.61,11.75-8.64,5.03-2.02,10.76-3.03,17.19-3.03,10.37,0,18.96,2.54,25.76,7.63,6.79,5.08,10.29,12.29,10.5,21.63h-23.19c-.21-3.21-1.45-5.84-3.74-7.86s-5.19-3.03-8.71-3.03c-2.7,0-4.88.7-6.53,2.1-1.66,1.4-2.49,3.19-2.49,5.37s.93,3.99,2.8,5.45c1.87,1.45,4.93,2.54,9.18,3.27,8.5,1.56,15.02,3.09,19.53,4.59,4.51,1.5,7.91,3.73,10.19,6.69s3.43,7.08,3.43,12.37c0,7.68-3.04,13.57-9.11,17.66-6.07,4.1-13.98,6.15-23.73,6.15-6.64,0-12.76-1.17-18.36-3.5Z"/><path class="cls-1" d="M347.7,116.96h25.37v25.68l27.83-25.81h27.54l-32.81,33.59,35.48,45.91h-27.39l-25.83-32.84-4.98,4.51v28.32h-25.36l.16-79.37Z"/><path class="cls-1" d="M438.43,117.43h25.52v19.14c1.45-6.02,4.72-10.79,9.8-14.32,5.08-3.53,10.84-5.29,17.27-5.29,5.4,0,10.48,1.3,15.25,3.89l-13.54,20.54c-2.39-2.07-5.4-3.11-9.03-3.11-3.01,0-5.94.78-8.79,2.33s-5.19,3.76-7,6.61c-1.81,2.85-2.72,6.1-2.72,9.73v39.37h-26.77v-78.9Z"/><path class="cls-1" d="M519.9,192.44c-5.76-3.63-10.25-8.53-13.46-14.71-3.22-6.17-4.82-12.99-4.82-20.46,0-8.51,1.58-15.87,4.74-22.1,3.16-6.22,7.5-11,13-14.32,5.5-3.32,11.72-4.98,18.67-4.98s12.97,1.74,18.67,5.21c5.7,3.48,9.39,8.33,11.05,14.55v-18.21h25.52v78.9h-25.37v-18.36c-1.66,5.91-5.24,10.71-10.74,14.4-5.5,3.68-11.41,5.52-17.74,5.52-7.26,0-13.77-1.81-19.53-5.45ZM532.66,171.35c3.79,3.68,8.43,5.52,13.93,5.52s10.35-1.84,14.24-5.52c3.89-3.68,5.84-8.43,5.84-14.24,0-6.22-1.92-11.21-5.76-14.94-3.84-3.74-8.61-5.6-14.32-5.6s-10.4,1.87-14.09,5.6c-3.68,3.73-5.53,8.71-5.53,14.94,0,5.81,1.89,10.56,5.68,14.24Z"/><path class="cls-1" d="M600.58,117.43h25.52l19.92,52.45,19.77-52.45h25.52l-33.15,78.9h-24.43l-33.15-78.9Z"/><path class="cls-2" d="M76.64,195.58c-6.84,1.08-13.29-3.59-14.38-10.43-1.08-6.85,3.59-13.29,10.44-14.38.66-.1,1.32-.15,1.98-.15,6.06,0,11.41,4.41,12.4,10.59,1.09,6.84-3.59,13.29-10.43,14.37Z"/><path class="cls-2" d="M134.02,173.88c-.26-1.66-.84-3.21-1.7-4.6-.85-1.4-1.98-2.61-3.33-3.59-2.17-1.58-4.73-2.4-7.36-2.4-.66,0-1.32.05-2,.16-3.31.52-6.22,2.31-8.19,5.03-1.98,2.71-2.77,6.03-2.24,9.35.52,3.32,2.31,6.22,5.03,8.2,2.71,1.97,6.03,2.76,9.35,2.24,3.32-.53,6.22-2.32,8.2-5.03,1.97-2.72,2.76-6.04,2.24-9.36ZM134.02,173.88c-.26-1.66-.84-3.21-1.7-4.6-.85-1.4-1.98-2.61-3.33-3.59-2.17-1.58-4.73-2.4-7.36-2.4-.66,0-1.32.05-2,.16-3.31.52-6.22,2.31-8.19,5.03-1.98,2.71-2.77,6.03-2.24,9.35.52,3.32,2.31,6.22,5.03,8.2,2.71,1.97,6.03,2.76,9.35,2.24,3.32-.53,6.22-2.32,8.2-5.03,1.97-2.72,2.76-6.04,2.24-9.36ZM134.02,173.88c-.26-1.66-.84-3.21-1.7-4.6-.85-1.4-1.98-2.61-3.33-3.59-2.17-1.58-4.73-2.4-7.36-2.4-.66,0-1.32.05-2,.16-3.31.52-6.22,2.31-8.19,5.03-1.98,2.71-2.77,6.03-2.24,9.35.52,3.32,2.31,6.22,5.03,8.2,2.71,1.97,6.03,2.76,9.35,2.24,3.32-.53,6.22-2.32,8.2-5.03,1.97-2.72,2.76-6.04,2.24-9.36ZM180.93,166.42c-.26-1.66-.83-3.21-1.69-4.6-.85-1.4-1.98-2.61-3.34-3.59-2.17-1.58-4.72-2.4-7.35-2.4-.66,0-1.34.05-2.01.16-3.31.53-6.22,2.31-8.19,5.03-1.97,2.72-2.76,6.04-2.24,9.36.53,3.31,2.32,6.22,5.03,8.19,2.72,1.97,6.03,2.76,9.36,2.24,3.31-.53,6.22-2.32,8.19-5.03,1.98-2.72,2.77-6.04,2.24-9.36ZM180.93,166.42c-.26-1.66-.83-3.21-1.69-4.6-.85-1.4-1.98-2.61-3.34-3.59-2.17-1.58-4.72-2.4-7.35-2.4-.66,0-1.34.05-2.01.16-3.31.53-6.22,2.31-8.19,5.03-1.97,2.72-2.76,6.04-2.24,9.36.53,3.31,2.32,6.22,5.03,8.19,2.72,1.97,6.03,2.76,9.36,2.24,3.31-.53,6.22-2.32,8.19-5.03,1.98-2.72,2.77-6.04,2.24-9.36ZM134.02,173.88c-.26-1.66-.84-3.21-1.7-4.6-.85-1.4-1.98-2.61-3.33-3.59-2.17-1.58-4.73-2.4-7.36-2.4-.66,0-1.32.05-2,.16-3.31.52-6.22,2.31-8.19,5.03-1.98,2.71-2.77,6.03-2.24,9.35.52,3.32,2.31,6.22,5.03,8.2,2.71,1.97,6.03,2.76,9.35,2.24,3.32-.53,6.22-2.32,8.2-5.03,1.97-2.72,2.76-6.04,2.24-9.36ZM134.02,173.88c-.26-1.66-.84-3.21-1.7-4.6-.85-1.4-1.98-2.61-3.33-3.59-2.17-1.58-4.73-2.4-7.36-2.4-.66,0-1.32.05-2,.16-3.31.52-6.22,2.31-8.19,5.03-1.98,2.71-2.77,6.03-2.24,9.35.52,3.32,2.31,6.22,5.03,8.2,2.71,1.97,6.03,2.76,9.35,2.24,3.32-.53,6.22-2.32,8.2-5.03,1.97-2.72,2.76-6.04,2.24-9.36ZM180.93,166.42c-.26-1.66-.83-3.21-1.69-4.6-.85-1.4-1.98-2.61-3.34-3.59-2.17-1.58-4.72-2.4-7.35-2.4-.66,0-1.34.05-2.01.16-3.31.53-6.22,2.31-8.19,5.03-1.97,2.72-2.76,6.04-2.24,9.36.53,3.31,2.32,6.22,5.03,8.19,2.72,1.97,6.03,2.76,9.36,2.24,3.31-.53,6.22-2.32,8.19-5.03,1.98-2.72,2.77-6.04,2.24-9.36ZM180.93,166.42c-.26-1.66-.83-3.21-1.69-4.6-.85-1.4-1.98-2.61-3.34-3.59-2.17-1.58-4.72-2.4-7.35-2.4-.66,0-1.34.05-2.01.16-3.31.53-6.22,2.31-8.19,5.03-1.97,2.72-2.76,6.04-2.24,9.36.53,3.31,2.32,6.22,5.03,8.19,2.72,1.97,6.03,2.76,9.36,2.24,3.31-.53,6.22-2.32,8.19-5.03,1.98-2.72,2.77-6.04,2.24-9.36ZM134.02,173.88c-.26-1.66-.84-3.21-1.7-4.6-.85-1.4-1.98-2.61-3.33-3.59-2.17-1.58-4.73-2.4-7.36-2.4-.66,0-1.32.05-2,.16-3.31.52-6.22,2.31-8.19,5.03-1.98,2.71-2.77,6.03-2.24,9.35.52,3.32,2.31,6.22,5.03,8.2,2.71,1.97,6.03,2.76,9.35,2.24,3.32-.53,6.22-2.32,8.2-5.03,1.97-2.72,2.76-6.04,2.24-9.36ZM134.02,173.88c-.26-1.66-.84-3.21-1.7-4.6-.85-1.4-1.98-2.61-3.33-3.59-2.17-1.58-4.73-2.4-7.36-2.4-.66,0-1.32.05-2,.16-3.31.52-6.22,2.31-8.19,5.03-1.98,2.71-2.77,6.03-2.24,9.35.52,3.32,2.31,6.22,5.03,8.2,2.71,1.97,6.03,2.76,9.35,2.24,3.32-.53,6.22-2.32,8.2-5.03,1.97-2.72,2.76-6.04,2.24-9.36ZM180.93,166.42c-.26-1.66-.83-3.21-1.69-4.6-.85-1.4-1.98-2.61-3.34-3.59-2.17-1.58-4.72-2.4-7.35-2.4-.66,0-1.34.05-2.01.16-3.31.53-6.22,2.31-8.19,5.03-1.97,2.72-2.76,6.04-2.24,9.36.53,3.31,2.32,6.22,5.03,8.19,2.72,1.97,6.03,2.76,9.36,2.24,3.31-.53,6.22-2.32,8.19-5.03,1.98-2.72,2.77-6.04,2.24-9.36ZM134.02,173.88c-.26-1.66-.84-3.21-1.7-4.6-.85-1.4-1.98-2.61-3.33-3.59-2.17-1.58-4.73-2.4-7.36-2.4-.66,0-1.32.05-2,.16-3.31.52-6.22,2.31-8.19,5.03-1.98,2.71-2.77,6.03-2.24,9.35.52,3.32,2.31,6.22,5.03,8.2,2.71,1.97,6.03,2.76,9.35,2.24,3.32-.53,6.22-2.32,8.2-5.03,1.97-2.72,2.76-6.04,2.24-9.36ZM180.93,166.42c-.26-1.66-.83-3.21-1.69-4.6-.85-1.4-1.98-2.61-3.34-3.59-2.17-1.58-4.72-2.4-7.35-2.4-.66,0-1.34.05-2.01.16-3.31.53-6.22,2.31-8.19,5.03-1.97,2.72-2.76,6.04-2.24,9.36.53,3.31,2.32,6.22,5.03,8.19,2.72,1.97,6.03,2.76,9.36,2.24,3.31-.53,6.22-2.32,8.19-5.03,1.98-2.72,2.77-6.04,2.24-9.36ZM134.02,173.88c-.26-1.66-.84-3.21-1.7-4.6-.85-1.4-1.98-2.61-3.33-3.59-2.17-1.58-4.73-2.4-7.36-2.4-.66,0-1.32.05-2,.16-3.31.52-6.22,2.31-8.19,5.03-1.98,2.71-2.77,6.03-2.24,9.35.52,3.32,2.31,6.22,5.03,8.2,2.71,1.97,6.03,2.76,9.35,2.24,3.32-.53,6.22-2.32,8.2-5.03,1.97-2.72,2.76-6.04,2.24-9.36ZM134.02,173.88c-.26-1.66-.84-3.21-1.7-4.6-.85-1.4-1.98-2.61-3.33-3.59-2.17-1.58-4.73-2.4-7.36-2.4-.66,0-1.32.05-2,.16-3.31.52-6.22,2.31-8.19,5.03-1.98,2.71-2.77,6.03-2.24,9.35.52,3.32,2.31,6.22,5.03,8.2,2.71,1.97,6.03,2.76,9.35,2.24,3.32-.53,6.22-2.32,8.2-5.03,1.97-2.72,2.76-6.04,2.24-9.36ZM180.93,166.42c-.26-1.66-.83-3.21-1.69-4.6-.85-1.4-1.98-2.61-3.34-3.59-2.17-1.58-4.72-2.4-7.35-2.4-.66,0-1.34.05-2.01.16-3.31.53-6.22,2.31-8.19,5.03-1.97,2.72-2.76,6.04-2.24,9.36.53,3.31,2.32,6.22,5.03,8.19,2.72,1.97,6.03,2.76,9.36,2.24,3.31-.53,6.22-2.32,8.19-5.03,1.98-2.72,2.77-6.04,2.24-9.36ZM180.93,166.42c-.26-1.66-.83-3.21-1.69-4.6-.85-1.4-1.98-2.61-3.34-3.59-2.17-1.58-4.72-2.4-7.35-2.4-.66,0-1.34.05-2.01.16-3.31.53-6.22,2.31-8.19,5.03-1.97,2.72-2.76,6.04-2.24,9.36.53,3.31,2.32,6.22,5.03,8.19,2.72,1.97,6.03,2.76,9.36,2.24,3.31-.53,6.22-2.32,8.19-5.03,1.98-2.72,2.77-6.04,2.24-9.36ZM134.02,173.88c-.26-1.66-.84-3.21-1.7-4.6-.85-1.4-1.98-2.61-3.33-3.59-2.17-1.58-4.73-2.4-7.36-2.4-.66,0-1.32.05-2,.16-3.31.52-6.22,2.31-8.19,5.03-1.98,2.71-2.77,6.03-2.24,9.35.52,3.32,2.31,6.22,5.03,8.2,2.71,1.97,6.03,2.76,9.35,2.24,3.32-.53,6.22-2.32,8.2-5.03,1.97-2.72,2.76-6.04,2.24-9.36ZM134.02,173.88c-.26-1.66-.84-3.21-1.7-4.6-.85-1.4-1.98-2.61-3.33-3.59-2.17-1.58-4.73-2.4-7.36-2.4-.66,0-1.32.05-2,.16-3.31.52-6.22,2.31-8.19,5.03-1.98,2.71-2.77,6.03-2.24,9.35.52,3.32,2.31,6.22,5.03,8.2,2.71,1.97,6.03,2.76,9.35,2.24,3.32-.53,6.22-2.32,8.2-5.03,1.97-2.72,2.76-6.04,2.24-9.36ZM134.02,173.88c-.26-1.66-.84-3.21-1.7-4.6-.85-1.4-1.98-2.61-3.33-3.59-2.17-1.58-4.73-2.4-7.36-2.4-.66,0-1.32.05-2,.16-3.31.52-6.22,2.31-8.19,5.03-1.98,2.71-2.77,6.03-2.24,9.35.52,3.32,2.31,6.22,5.03,8.2,2.71,1.97,6.03,2.76,9.35,2.24,3.32-.53,6.22-2.32,8.2-5.03,1.97-2.72,2.76-6.04,2.24-9.36ZM134.02,173.88c-.26-1.66-.84-3.21-1.7-4.6-.85-1.4-1.98-2.61-3.33-3.59-2.17-1.58-4.73-2.4-7.36-2.4-.66,0-1.32.05-2,.16-3.31.52-6.22,2.31-8.19,5.03-1.98,2.71-2.77,6.03-2.24,9.35.52,3.32,2.31,6.22,5.03,8.2,2.71,1.97,6.03,2.76,9.35,2.24,3.32-.53,6.22-2.32,8.2-5.03,1.97-2.72,2.76-6.04,2.24-9.36ZM134.02,173.88c-.26-1.66-.84-3.21-1.7-4.6-.85-1.4-1.98-2.61-3.33-3.59-2.17-1.58-4.73-2.4-7.36-2.4-.66,0-1.32.05-2,.16-3.31.52-6.22,2.31-8.19,5.03-1.98,2.71-2.77,6.03-2.24,9.35.52,3.32,2.31,6.22,5.03,8.2,2.71,1.97,6.03,2.76,9.35,2.24,3.32-.53,6.22-2.32,8.2-5.03,1.97-2.72,2.76-6.04,2.24-9.36Z"/><path class="cls-2" d="M76.64,195.58c-6.84,1.08-13.29-3.59-14.38-10.43-1.08-6.85,3.59-13.29,10.44-14.38.66-.1,1.32-.15,1.98-.15,6.06,0,11.41,4.41,12.4,10.59,1.09,6.84-3.59,13.29-10.43,14.37Z"/><path class="cls-2" d="M131.79,183.24c-1.98,2.71-4.88,4.5-8.2,5.03-3.31.52-6.64-.27-9.35-2.24-2.72-1.98-4.51-4.88-5.03-8.2-.53-3.31.26-6.64,2.24-9.35,1.97-2.72,4.88-4.51,8.19-5.03.67-.11,1.33-.16,2-.16,2.63,0,5.19.82,7.36,2.4,1.36.98,2.48,2.2,3.33,3.59.85,1.39,1.44,2.94,1.7,4.6.52,3.31-.27,6.63-2.24,9.36Z"/><path class="cls-2" d="M178.69,175.77c-1.97,2.71-4.88,4.5-8.19,5.03-3.32.52-6.64-.27-9.36-2.24-2.71-1.97-4.5-4.88-5.03-8.19-.52-3.31.27-6.63,2.24-9.36,1.97-2.72,4.88-4.5,8.19-5.03.67-.11,1.35-.16,2.01-.16,2.63,0,5.18.82,7.35,2.4,1.37.98,2.49,2.2,3.34,3.59.85,1.39,1.43,2.94,1.69,4.6.53,3.31-.26,6.64-2.24,9.36Z"/><path class="cls-2" d="M183.42,68.08c-.79.34-1.59.69-2.4,1.04-.79.34-1.61.69-2.42,1.03-.97.42-1.96.84-2.95,1.26-.81.35-1.63.7-2.46,1.05-.81.35-1.64.69-2.46,1.05-16.81-17.06-40.58-17.02-51.92-10.08-14,8.33-19.17,22.87-13.54,37.48-.77.32-1.55.64-2.31.97-.78.32-1.56.64-2.33.96-.93.4-1.86.78-2.78,1.17-.77.33-1.55.65-2.31.97-.78.33-1.55.66-2.32.98-8-20.42-.46-42.24,18.84-53.72,16.32-10.03,49.9-9.94,71.35,15.8Z"/><path class="cls-2" d="M245.97,162.39c-2.77-15.83-6.79-30.48-12.05-45.9-9.05-26.44-20.16-45.99-29.62-51.77-5.11-3.2-10-1.52-15.34.95-1.8.79-3.64,1.6-5.55,2.42-.79.34-1.59.69-2.4,1.04-.79.34-1.61.69-2.42,1.03-.97.42-1.96.84-2.95,1.26-.81.35-1.63.7-2.46,1.05-.81.35-1.64.69-2.46,1.05-19.98,8.48-43.56,18.21-65.46,27.4.26.67.54,1.35.84,2.02.13.29.26.57.4.87,3.19,6.83,8.06,11.3,14.22,16.97l.86.8c.82.75,1.65,1.52,2.49,2.31,10.08,8.98,21.69,17.89,31.97,25.62,2.65-1.77,5.67-2.94,8.9-3.46,5.96-.94,11.93.48,16.82,4.03,4.89,3.55,8.1,8.78,9.05,14.75.19,1.2.28,2.4.28,3.59,0,4.73-1.48,9.33-4.31,13.23-3.54,4.89-8.78,8.1-14.75,9.04-1.2.2-2.41.29-3.6.29-4.73,0-9.32-1.49-13.22-4.32-4.89-3.54-8.1-8.77-9.04-14.74-.68-4.26-.15-8.51,1.51-12.38-10.86-8.16-22.25-16.95-32.39-25.99l-.19-.18c-.72-.68-1.5-1.4-2.26-2.1l-.97-.9c-6.64-6.11-12.92-11.89-17.16-20.97-.2-.42-.4-.85-.6-1.28-.32-.71-.62-1.43-.9-2.14-16.12,6.82-30.67,13.14-41.28,18.15-5.19,2.45-9.46,6.57-11.81,11.81-3.4,7.56-3.96,16.83-4.2,27.13-.19,8.14,1.76,19.85,4.52,32.46,1,4.58,1.81,9.2,2.44,13.84l2.17,15.96c1.5,10.99,1.5,22.14,0,33.13l-3.3,24.24c-.13.97.98,1.62,1.76,1.01l19.34-14.99c.09-.07.17-.13.26-.2,13.17-10.13,29.16-15.92,45.74-16.94,26.58-1.64,63.61-3.96,86.77-5.37,15.26-.94,27.92-1.73,34.68-2.15,3.01-.23,6.05-.19,8.85-1.17l.07-.03c18.17-7.94,9.86-62.45,6.74-80.51ZM56.37,169.9c3.54-4.89,8.77-8.1,14.74-9.04,12.33-1.97,23.92,6.45,25.88,18.76.19,1.19.28,2.39.28,3.56,0,10.91-7.94,20.55-19.05,22.31-1.19.19-2.39.28-3.56.28-10.91,0-20.54-7.94-22.3-19.05-.95-5.96.48-11.93,4.03-16.82ZM137.82,191.62c-2.99,3.12-9.06,6.1-13.35,6.65-.97.13-1.94.19-2.91.19-4.73,0-9.33-1.49-13.22-4.32-4.89-3.54-8.1-8.78-9.05-14.75-.94-5.95.48-11.93,4.03-16.81,4.09-5.64,10.44-9.05,17.55-9.33,3.89-.15,7.79.74,11.23,2.57,6.45,3.42,10.72,9.45,11.83,16.48,1.12,7.02-1.07,14.05-6.11,19.32ZM238.09,227.13c-7.5,1.76-21.42-30.28-31.1-71.57-9.68-41.29-11.44-76.18-3.94-77.93,7.5-1.76,21.42,30.28,31.1,71.57,9.68,41.29,11.44,76.18,3.94,77.93Z"/></svg>