<?xml version="1.0" encoding="UTF-8"?><svg id="Layer_1" xmlns="http://www.w3.org/2000/svg" viewBox="0 0 675.72 321.14"><defs><style>.cls-1{fill:#f9f9fb;}.cls-2{fill:#f60;}</style></defs><path class="cls-2" d="M604.82,268.52c6.03-.89,10.21-6.51,9.32-12.54-.43-2.92-1.97-5.5-4.33-7.26-2.37-1.76-5.28-2.5-8.2-2.07-2.92.43-5.5,1.97-7.26,4.33-1.41,1.89-2.16,4.13-2.19,6.44,0,.58.03,1.17.12,1.76.8,5.44,5.46,9.38,10.8,9.45.57,0,1.15-.03,1.74-.12ZM598.59,254.14c.92-1.24,2.26-2.04,3.79-2.26,1.52-.22,3.05.16,4.28,1.08,1.23.92,2.04,2.27,2.26,3.79.04.31.06.61.06.91-.02,1.39-.54,2.7-1.41,3.7-.87,1.01-2.09,1.72-3.52,1.93-3.14.46-6.08-1.72-6.54-4.86-.23-1.52.16-3.05,1.08-4.28Z"/><path class="cls-1" d="M510.76,188.84h25.52v56.96h46.22v21.94h-71.74v-78.9Z"/><path class="cls-1" d="M100.7,265.8c-5.6-2.33-10.12-5.73-13.54-10.19-3.42-4.46-5.13-9.65-5.13-15.56h23.19c.31,3.42,1.66,6.1,4.05,8.01,2.39,1.92,5.34,2.88,8.87,2.88,2.8,0,5.08-.62,6.85-1.87,1.76-1.24,2.64-2.96,2.64-5.14s-.85-3.91-2.57-5.21c-1.71-1.29-4.49-2.2-8.33-2.72-11.51-1.35-20.18-3.73-25.99-7.16-5.81-3.42-8.71-9.08-8.71-16.96,0-4.88,1.4-9.18,4.2-12.92,2.8-3.73,6.72-6.61,11.75-8.64,5.03-2.02,10.76-3.03,17.19-3.03,10.37,0,18.96,2.54,25.76,7.63,6.79,5.08,10.29,12.29,10.5,21.63h-23.19c-.21-3.21-1.45-5.84-3.74-7.86-2.28-2.02-5.19-3.03-8.71-3.03-2.7,0-4.88.7-6.53,2.1-1.66,1.4-2.49,3.19-2.49,5.37s.93,3.99,2.8,5.45c1.87,1.45,4.93,2.54,9.18,3.27,8.5,1.56,15.02,3.09,19.53,4.59,4.51,1.5,7.91,3.73,10.19,6.69s3.43,7.08,3.43,12.37c0,7.68-3.04,13.57-9.11,17.66-6.07,4.1-13.98,6.15-23.73,6.15-6.64,0-12.76-1.17-18.36-3.5Z"/><path class="cls-1" d="M159.68,188.38h25.37v25.68l27.83-25.81h27.54l-32.81,33.59,35.48,45.91h-27.39l-25.83-32.84-4.98,4.51v28.32h-25.36l.16-79.37Z"/><path class="cls-1" d="M250.41,188.84h25.52v19.14c1.45-6.02,4.72-10.79,9.8-14.32,5.08-3.53,10.84-5.29,17.27-5.29,5.4,0,10.48,1.3,15.25,3.89l-13.54,20.54c-2.39-2.07-5.4-3.11-9.03-3.11-3.01,0-5.94.78-8.79,2.33-2.85,1.56-5.19,3.76-7,6.61-1.81,2.85-2.72,6.1-2.72,9.73v39.37h-26.77v-78.9Z"/><path class="cls-1" d="M331.88,263.85c-5.76-3.63-10.25-8.53-13.46-14.71-3.22-6.17-4.82-12.99-4.82-20.46,0-8.51,1.58-15.87,4.74-22.1,3.16-6.22,7.5-11,13-14.32,5.5-3.32,11.72-4.98,18.67-4.98s12.97,1.74,18.67,5.21c5.7,3.48,9.39,8.33,11.05,14.55v-18.21h25.52v78.9h-25.37v-18.36c-1.66,5.91-5.24,10.71-10.74,14.4-5.5,3.68-11.41,5.52-17.74,5.52-7.26,0-13.77-1.81-19.53-5.45ZM344.64,242.77c3.79,3.68,8.43,5.52,13.93,5.52s10.35-1.84,14.24-5.52c3.89-3.68,5.84-8.43,5.84-14.24,0-6.22-1.92-11.21-5.76-14.94-3.84-3.74-8.61-5.6-14.32-5.6s-10.4,1.87-14.09,5.6c-3.68,3.73-5.53,8.71-5.53,14.94,0,5.81,1.89,10.56,5.68,14.24Z"/><path class="cls-1" d="M412.57,188.84h25.52l19.92,52.45,19.77-52.45h25.52l-33.15,78.9h-24.43l-33.15-78.9Z"/><path class="cls-2" d="M198.05,117.11c-1.63,0-3.1-1.11-3.49-2.76-.46-1.93.74-3.86,2.67-4.32l64.78-15.35c1.93-.46,3.86.74,4.32,2.66.46,1.93-.74,3.86-2.67,4.32l-64.78,15.35c-.28.07-.56.1-.83.1Z"/><path class="cls-2" d="M243.78,137.04c-.16,0-.32-.01-.48-.03l-43.97-5.91c-1.96-.26-3.34-2.07-3.08-4.04.26-1.96,2.07-3.35,4.04-3.08l43.97,5.91c1.96.26,3.34,2.07,3.08,4.04-.24,1.8-1.78,3.11-3.55,3.11Z"/><path class="cls-2" d="M194.59,103.79c-1.08,0-2.15-.49-2.86-1.41-1.2-1.58-.9-3.83.68-5.03l35.27-26.91c1.58-1.2,3.83-.9,5.03.68s.9,3.83-.68,5.03l-35.27,26.91c-.65.5-1.42.74-2.17.74Z"/><path class="cls-2" d="M87.31,140.95c-4.07.65-7.92-2.14-8.57-6.22-.65-4.08,2.14-7.92,6.22-8.57.39-.06.79-.09,1.18-.09,3.61,0,6.8,2.63,7.39,6.31.65,4.07-2.14,7.92-6.22,8.57Z"/><path class="cls-2" d="M121.51,128.02c-.16-.99-.5-1.91-1.01-2.74-.51-.83-1.18-1.56-1.99-2.14-1.29-.94-2.82-1.43-4.39-1.43-.39,0-.79.03-1.19.1-1.97.31-3.71,1.38-4.88,3-1.18,1.62-1.65,3.6-1.33,5.57.31,1.98,1.38,3.71,3,4.89,1.62,1.17,3.6,1.65,5.57,1.33,1.98-.32,3.71-1.38,4.89-3,1.17-1.62,1.65-3.6,1.33-5.58ZM121.51,128.02c-.16-.99-.5-1.91-1.01-2.74-.51-.83-1.18-1.56-1.99-2.14-1.29-.94-2.82-1.43-4.39-1.43-.39,0-.79.03-1.19.1-1.97.31-3.71,1.38-4.88,3-1.18,1.62-1.65,3.6-1.33,5.57.31,1.98,1.38,3.71,3,4.89,1.62,1.17,3.6,1.65,5.57,1.33,1.98-.32,3.71-1.38,4.89-3,1.17-1.62,1.65-3.6,1.33-5.58ZM121.51,128.02c-.16-.99-.5-1.91-1.01-2.74-.51-.83-1.18-1.56-1.99-2.14-1.29-.94-2.82-1.43-4.39-1.43-.39,0-.79.03-1.19.1-1.97.31-3.71,1.38-4.88,3-1.18,1.62-1.65,3.6-1.33,5.57.31,1.98,1.38,3.71,3,4.89,1.62,1.17,3.6,1.65,5.57,1.33,1.98-.32,3.71-1.38,4.89-3,1.17-1.62,1.65-3.6,1.33-5.58ZM149.47,123.57c-.16-.99-.5-1.91-1.01-2.74-.51-.83-1.18-1.56-1.99-2.14-1.29-.94-2.81-1.43-4.38-1.43-.39,0-.8.03-1.2.1-1.97.32-3.71,1.38-4.88,3-1.17,1.62-1.65,3.6-1.33,5.58.32,1.97,1.38,3.71,3,4.88,1.62,1.17,3.6,1.65,5.58,1.33,1.97-.32,3.71-1.38,4.88-3,1.18-1.62,1.65-3.6,1.33-5.58ZM149.47,123.57c-.16-.99-.5-1.91-1.01-2.74-.51-.83-1.18-1.56-1.99-2.14-1.29-.94-2.81-1.43-4.38-1.43-.39,0-.8.03-1.2.1-1.97.32-3.71,1.38-4.88,3-1.17,1.62-1.65,3.6-1.33,5.58.32,1.97,1.38,3.71,3,4.88,1.62,1.17,3.6,1.65,5.58,1.33,1.97-.32,3.71-1.38,4.88-3,1.18-1.62,1.65-3.6,1.33-5.58ZM121.51,128.02c-.16-.99-.5-1.91-1.01-2.74-.51-.83-1.18-1.56-1.99-2.14-1.29-.94-2.82-1.43-4.39-1.43-.39,0-.79.03-1.19.1-1.97.31-3.71,1.38-4.88,3-1.18,1.62-1.65,3.6-1.33,5.57.31,1.98,1.38,3.71,3,4.89,1.62,1.17,3.6,1.65,5.57,1.33,1.98-.32,3.71-1.38,4.89-3,1.17-1.62,1.65-3.6,1.33-5.58ZM121.51,128.02c-.16-.99-.5-1.91-1.01-2.74-.51-.83-1.18-1.56-1.99-2.14-1.29-.94-2.82-1.43-4.39-1.43-.39,0-.79.03-1.19.1-1.97.31-3.71,1.38-4.88,3-1.18,1.62-1.65,3.6-1.33,5.57.31,1.98,1.38,3.71,3,4.89,1.62,1.17,3.6,1.65,5.57,1.33,1.98-.32,3.71-1.38,4.89-3,1.17-1.62,1.65-3.6,1.33-5.58ZM149.47,123.57c-.16-.99-.5-1.91-1.01-2.74-.51-.83-1.18-1.56-1.99-2.14-1.29-.94-2.81-1.43-4.38-1.43-.39,0-.8.03-1.2.1-1.97.32-3.71,1.38-4.88,3-1.17,1.62-1.65,3.6-1.33,5.58.32,1.97,1.38,3.71,3,4.88,1.62,1.17,3.6,1.65,5.58,1.33,1.97-.32,3.71-1.38,4.88-3,1.18-1.62,1.65-3.6,1.33-5.58ZM149.47,123.57c-.16-.99-.5-1.91-1.01-2.74-.51-.83-1.18-1.56-1.99-2.14-1.29-.94-2.81-1.43-4.38-1.43-.39,0-.8.03-1.2.1-1.97.32-3.71,1.38-4.88,3-1.17,1.62-1.65,3.6-1.33,5.58.32,1.97,1.38,3.71,3,4.88,1.62,1.17,3.6,1.65,5.58,1.33,1.97-.32,3.71-1.38,4.88-3,1.18-1.62,1.65-3.6,1.33-5.58ZM121.51,128.02c-.16-.99-.5-1.91-1.01-2.74-.51-.83-1.18-1.56-1.99-2.14-1.29-.94-2.82-1.43-4.39-1.43-.39,0-.79.03-1.19.1-1.97.31-3.71,1.38-4.88,3-1.18,1.62-1.65,3.6-1.33,5.57.31,1.98,1.38,3.71,3,4.89,1.62,1.17,3.6,1.65,5.57,1.33,1.98-.32,3.71-1.38,4.89-3,1.17-1.62,1.65-3.6,1.33-5.58ZM121.51,128.02c-.16-.99-.5-1.91-1.01-2.74-.51-.83-1.18-1.56-1.99-2.14-1.29-.94-2.82-1.43-4.39-1.43-.39,0-.79.03-1.19.1-1.97.31-3.71,1.38-4.88,3-1.18,1.62-1.65,3.6-1.33,5.57.31,1.98,1.38,3.71,3,4.89,1.62,1.17,3.6,1.65,5.57,1.33,1.98-.32,3.71-1.38,4.89-3,1.17-1.62,1.65-3.6,1.33-5.58ZM149.47,123.57c-.16-.99-.5-1.91-1.01-2.74-.51-.83-1.18-1.56-1.99-2.14-1.29-.94-2.81-1.43-4.38-1.43-.39,0-.8.03-1.2.1-1.97.32-3.71,1.38-4.88,3-1.17,1.62-1.65,3.6-1.33,5.58.32,1.97,1.38,3.71,3,4.88,1.62,1.17,3.6,1.65,5.58,1.33,1.97-.32,3.71-1.38,4.88-3,1.18-1.62,1.65-3.6,1.33-5.58ZM121.51,128.02c-.16-.99-.5-1.91-1.01-2.74-.51-.83-1.18-1.56-1.99-2.14-1.29-.94-2.82-1.43-4.39-1.43-.39,0-.79.03-1.19.1-1.97.31-3.71,1.38-4.88,3-1.18,1.62-1.65,3.6-1.33,5.57.31,1.98,1.38,3.71,3,4.89,1.62,1.17,3.6,1.65,5.57,1.33,1.98-.32,3.71-1.38,4.89-3,1.17-1.62,1.65-3.6,1.33-5.58ZM149.47,123.57c-.16-.99-.5-1.91-1.01-2.74-.51-.83-1.18-1.56-1.99-2.14-1.29-.94-2.81-1.43-4.38-1.43-.39,0-.8.03-1.2.1-1.97.32-3.71,1.38-4.88,3-1.17,1.62-1.65,3.6-1.33,5.58.32,1.97,1.38,3.71,3,4.88,1.62,1.17,3.6,1.65,5.58,1.33,1.97-.32,3.71-1.38,4.88-3,1.18-1.62,1.65-3.6,1.33-5.58ZM121.51,128.02c-.16-.99-.5-1.91-1.01-2.74-.51-.83-1.18-1.56-1.99-2.14-1.29-.94-2.82-1.43-4.39-1.43-.39,0-.79.03-1.19.1-1.97.31-3.71,1.38-4.88,3-1.18,1.62-1.65,3.6-1.33,5.57.31,1.98,1.38,3.71,3,4.89,1.62,1.17,3.6,1.65,5.57,1.33,1.98-.32,3.71-1.38,4.89-3,1.17-1.62,1.65-3.6,1.33-5.58ZM121.51,128.02c-.16-.99-.5-1.91-1.01-2.74-.51-.83-1.18-1.56-1.99-2.14-1.29-.94-2.82-1.43-4.39-1.43-.39,0-.79.03-1.19.1-1.97.31-3.71,1.38-4.88,3-1.18,1.62-1.65,3.6-1.33,5.57.31,1.98,1.38,3.71,3,4.89,1.62,1.17,3.6,1.65,5.57,1.33,1.98-.32,3.71-1.38,4.89-3,1.17-1.62,1.65-3.6,1.33-5.58ZM149.47,123.57c-.16-.99-.5-1.91-1.01-2.74-.51-.83-1.18-1.56-1.99-2.14-1.29-.94-2.81-1.43-4.38-1.43-.39,0-.8.03-1.2.1-1.97.32-3.71,1.38-4.88,3-1.17,1.62-1.65,3.6-1.33,5.58.32,1.97,1.38,3.71,3,4.88,1.62,1.17,3.6,1.65,5.58,1.33,1.97-.32,3.71-1.38,4.88-3,1.18-1.62,1.65-3.6,1.33-5.58ZM149.47,123.57c-.16-.99-.5-1.91-1.01-2.74-.51-.83-1.18-1.56-1.99-2.14-1.29-.94-2.81-1.43-4.38-1.43-.39,0-.8.03-1.2.1-1.97.32-3.71,1.38-4.88,3-1.17,1.62-1.65,3.6-1.33,5.58.32,1.97,1.38,3.71,3,4.88,1.62,1.17,3.6,1.65,5.58,1.33,1.97-.32,3.71-1.38,4.88-3,1.18-1.62,1.65-3.6,1.33-5.58ZM121.51,128.02c-.16-.99-.5-1.91-1.01-2.74-.51-.83-1.18-1.56-1.99-2.14-1.29-.94-2.82-1.43-4.39-1.43-.39,0-.79.03-1.19.1-1.97.31-3.71,1.38-4.88,3-1.18,1.62-1.65,3.6-1.33,5.57.31,1.98,1.38,3.71,3,4.89,1.62,1.17,3.6,1.65,5.57,1.33,1.98-.32,3.71-1.38,4.89-3,1.17-1.62,1.65-3.6,1.33-5.58ZM121.51,128.02c-.16-.99-.5-1.91-1.01-2.74-.51-.83-1.18-1.56-1.99-2.14-1.29-.94-2.82-1.43-4.39-1.43-.39,0-.79.03-1.19.1-1.97.31-3.71,1.38-4.88,3-1.18,1.62-1.65,3.6-1.33,5.57.31,1.98,1.38,3.71,3,4.89,1.62,1.17,3.6,1.65,5.57,1.33,1.98-.32,3.71-1.38,4.89-3,1.17-1.62,1.65-3.6,1.33-5.58ZM121.51,128.02c-.16-.99-.5-1.91-1.01-2.74-.51-.83-1.18-1.56-1.99-2.14-1.29-.94-2.82-1.43-4.39-1.43-.39,0-.79.03-1.19.1-1.97.31-3.71,1.38-4.88,3-1.18,1.62-1.65,3.6-1.33,5.57.31,1.98,1.38,3.71,3,4.89,1.62,1.17,3.6,1.65,5.57,1.33,1.98-.32,3.71-1.38,4.89-3,1.17-1.62,1.65-3.6,1.33-5.58ZM121.51,128.02c-.16-.99-.5-1.91-1.01-2.74-.51-.83-1.18-1.56-1.99-2.14-1.29-.94-2.82-1.43-4.39-1.43-.39,0-.79.03-1.19.1-1.97.31-3.71,1.38-4.88,3-1.18,1.62-1.65,3.6-1.33,5.57.31,1.98,1.38,3.71,3,4.89,1.62,1.17,3.6,1.65,5.57,1.33,1.98-.32,3.71-1.38,4.89-3,1.17-1.62,1.65-3.6,1.33-5.58ZM121.51,128.02c-.16-.99-.5-1.91-1.01-2.74-.51-.83-1.18-1.56-1.99-2.14-1.29-.94-2.82-1.43-4.39-1.43-.39,0-.79.03-1.19.1-1.97.31-3.71,1.38-4.88,3-1.18,1.62-1.65,3.6-1.33,5.57.31,1.98,1.38,3.71,3,4.89,1.62,1.17,3.6,1.65,5.57,1.33,1.98-.32,3.71-1.38,4.89-3,1.17-1.62,1.65-3.6,1.33-5.58Z"/><path class="cls-2" d="M87.31,140.95c-4.07.65-7.92-2.14-8.57-6.22-.65-4.08,2.14-7.92,6.22-8.57.39-.06.79-.09,1.18-.09,3.61,0,6.8,2.63,7.39,6.31.65,4.07-2.14,7.92-6.22,8.57Z"/><path class="cls-2" d="M120.18,133.6c-1.18,1.62-2.91,2.68-4.89,3-1.97.31-3.95-.16-5.57-1.33-1.62-1.18-2.69-2.91-3-4.89-.32-1.97.16-3.95,1.33-5.57,1.17-1.62,2.91-2.69,4.88-3,.4-.07.8-.1,1.19-.1,1.57,0,3.09.49,4.39,1.43.81.59,1.48,1.31,1.99,2.14.51.83.86,1.75,1.01,2.74.31,1.97-.16,3.95-1.33,5.58Z"/><path class="cls-2" d="M148.14,129.14c-1.17,1.62-2.91,2.68-4.88,3-1.98.31-3.95-.16-5.58-1.33-1.62-1.17-2.68-2.91-3-4.88-.31-1.97.16-3.95,1.33-5.58,1.17-1.62,2.91-2.68,4.88-3,.4-.07.8-.1,1.2-.1,1.57,0,3.09.49,4.38,1.43.81.59,1.48,1.31,1.99,2.14.51.83.85,1.75,1.01,2.74.32,1.97-.16,3.95-1.33,5.58Z"/><path class="cls-2" d="M150.95,64.95c-.47.2-.95.41-1.43.62-.47.2-.96.41-1.44.62-.58.25-1.17.5-1.76.75-.48.21-.97.42-1.47.63-.48.21-.98.41-1.47.63-10.02-10.17-24.19-10.15-30.94-6.01-8.35,4.97-11.43,13.63-8.07,22.34-.46.19-.92.38-1.38.58-.47.19-.93.38-1.39.57-.56.24-1.11.47-1.66.7-.46.2-.92.39-1.38.58-.47.2-.92.39-1.38.59-4.77-12.17-.28-25.18,11.23-32.02,9.73-5.98,29.74-5.92,42.53,9.42Z"/><path class="cls-2" d="M188.24,121.17c-1.65-9.44-4.04-18.17-7.18-27.36-5.4-15.76-12.01-27.41-17.66-30.86-3.05-1.91-5.96-.9-9.14.57-1.07.47-2.17.95-3.31,1.44-.47.2-.95.41-1.43.62-.47.2-.96.41-1.44.62-.58.25-1.17.5-1.76.75-.48.21-.97.42-1.47.63-.48.21-.98.41-1.47.63-11.91,5.06-25.97,10.85-39.02,16.33.16.4.32.8.5,1.2.08.17.16.34.24.52,1.9,4.07,4.8,6.74,8.48,10.12l.51.48c.49.45.98.9,1.48,1.38,6.01,5.35,12.93,10.66,19.06,15.27,1.58-1.05,3.38-1.75,5.31-2.06,3.55-.56,7.11.29,10.03,2.4,2.91,2.12,4.83,5.24,5.4,8.79.11.72.17,1.43.17,2.14,0,2.82-.88,5.56-2.57,7.89-2.11,2.91-5.24,4.83-8.79,5.39-.72.12-1.44.17-2.15.17-2.82,0-5.55-.89-7.88-2.57-2.91-2.11-4.83-5.23-5.39-8.78-.41-2.54-.09-5.07.9-7.38-6.47-4.86-13.26-10.11-19.31-15.49l-.11-.11c-.43-.41-.89-.83-1.35-1.25l-.58-.54c-3.96-3.64-7.7-7.09-10.23-12.5-.12-.25-.24-.51-.36-.77-.19-.42-.37-.85-.54-1.27-9.61,4.07-18.28,7.83-24.61,10.82-3.09,1.46-5.64,3.92-7.04,7.04-2.02,4.51-2.36,10.03-2.5,16.17-.11,4.85,1.05,11.83,2.69,19.35.6,2.73,1.08,5.48,1.46,8.25l1.3,9.51c.89,6.55.89,13.2,0,19.75l-1.97,14.45c-.08.58.59.96,1.05.6l11.53-8.93c.05-.04.1-.08.15-.12,7.85-6.04,17.38-9.49,27.26-10.1,15.84-.98,37.92-2.36,51.72-3.2,9.09-.56,16.65-1.03,20.67-1.28,1.79-.14,3.61-.11,5.28-.7l.04-.02c10.83-4.73,5.88-37.23,4.01-47.99ZM75.22,125.64c2.11-2.91,5.23-4.83,8.78-5.39,7.35-1.17,14.26,3.85,15.42,11.18.11.71.17,1.42.17,2.12,0,6.5-4.73,12.25-11.36,13.3-.71.11-1.42.17-2.12.17-6.5,0-12.24-4.73-13.29-11.36-.57-3.55.29-7.11,2.4-10.03ZM123.77,138.59c-1.78,1.86-5.4,3.63-7.96,3.96-.58.07-1.16.11-1.73.11-2.82,0-5.56-.89-7.88-2.57-2.91-2.11-4.83-5.24-5.4-8.79-.56-3.55.29-7.11,2.4-10.02,2.44-3.36,6.22-5.4,10.46-5.56,2.32-.09,4.64.44,6.69,1.53,3.85,2.04,6.39,5.63,7.05,9.82.67,4.18-.64,8.38-3.64,11.51ZM183.54,159.76c-4.47,1.05-12.77-18.05-18.54-42.66-5.77-24.61-6.82-45.41-2.35-46.45,4.47-1.05,12.77,18.05,18.54,42.66,5.77,24.61,6.82,45.41,2.35,46.45Z"/></svg>