<?xml version="1.0" encoding="UTF-8"?><svg id="Layer_1" xmlns="http://www.w3.org/2000/svg" viewBox="0 0 507.18 430.28"><defs><style>.cls-1{fill:#f60;}</style></defs><path class="cls-1" d="M174.38,245.57c-6.81,1.08-13.24-3.58-14.33-10.39-1.08-6.82,3.58-13.24,10.4-14.33.66-.1,1.32-.15,1.97-.15,6.04,0,11.37,4.39,12.35,10.55,1.09,6.81-3.58,13.24-10.39,14.32Z"/><path class="cls-1" d="M231.55,223.96c-.26-1.65-.84-3.2-1.69-4.58-.85-1.39-1.97-2.6-3.32-3.58-2.16-1.57-4.71-2.39-7.33-2.39-.66,0-1.32.05-1.99.16-3.3.52-6.2,2.3-8.16,5.01-1.97,2.7-2.76,6.01-2.23,9.31.52,3.31,2.3,6.2,5.01,8.17,2.7,1.96,6.01,2.75,9.31,2.23,3.31-.53,6.2-2.31,8.17-5.01,1.96-2.71,2.75-6.02,2.23-9.32ZM231.55,223.96c-.26-1.65-.84-3.2-1.69-4.58-.85-1.39-1.97-2.6-3.32-3.58-2.16-1.57-4.71-2.39-7.33-2.39-.66,0-1.32.05-1.99.16-3.3.52-6.2,2.3-8.16,5.01-1.97,2.7-2.76,6.01-2.23,9.31.52,3.31,2.3,6.2,5.01,8.17,2.7,1.96,6.01,2.75,9.31,2.23,3.31-.53,6.2-2.31,8.17-5.01,1.96-2.71,2.75-6.02,2.23-9.32ZM231.55,223.96c-.26-1.65-.84-3.2-1.69-4.58-.85-1.39-1.97-2.6-3.32-3.58-2.16-1.57-4.71-2.39-7.33-2.39-.66,0-1.32.05-1.99.16-3.3.52-6.2,2.3-8.16,5.01-1.97,2.7-2.76,6.01-2.23,9.31.52,3.31,2.3,6.2,5.01,8.17,2.7,1.96,6.01,2.75,9.31,2.23,3.31-.53,6.2-2.31,8.17-5.01,1.96-2.71,2.75-6.02,2.23-9.32ZM278.28,216.52c-.26-1.65-.83-3.2-1.68-4.58-.85-1.39-1.97-2.6-3.33-3.58-2.16-1.57-4.7-2.39-7.32-2.39-.66,0-1.33.05-2,.16-3.3.53-6.2,2.3-8.16,5.01-1.96,2.71-2.75,6.02-2.23,9.32.53,3.3,2.31,6.2,5.01,8.16,2.71,1.96,6.01,2.75,9.32,2.23,3.3-.53,6.2-2.31,8.16-5.01,1.97-2.71,2.76-6.02,2.23-9.32ZM278.28,216.52c-.26-1.65-.83-3.2-1.68-4.58-.85-1.39-1.97-2.6-3.33-3.58-2.16-1.57-4.7-2.39-7.32-2.39-.66,0-1.33.05-2,.16-3.3.53-6.2,2.3-8.16,5.01-1.96,2.71-2.75,6.02-2.23,9.32.53,3.3,2.31,6.2,5.01,8.16,2.71,1.96,6.01,2.75,9.32,2.23,3.3-.53,6.2-2.31,8.16-5.01,1.97-2.71,2.76-6.02,2.23-9.32ZM231.55,223.96c-.26-1.65-.84-3.2-1.69-4.58-.85-1.39-1.97-2.6-3.32-3.58-2.16-1.57-4.71-2.39-7.33-2.39-.66,0-1.32.05-1.99.16-3.3.52-6.2,2.3-8.16,5.01-1.97,2.7-2.76,6.01-2.23,9.31.52,3.31,2.3,6.2,5.01,8.17,2.7,1.96,6.01,2.75,9.31,2.23,3.31-.53,6.2-2.31,8.17-5.01,1.96-2.71,2.75-6.02,2.23-9.32ZM231.55,223.96c-.26-1.65-.84-3.2-1.69-4.58-.85-1.39-1.97-2.6-3.32-3.58-2.16-1.57-4.71-2.39-7.33-2.39-.66,0-1.32.05-1.99.16-3.3.52-6.2,2.3-8.16,5.01-1.97,2.7-2.76,6.01-2.23,9.31.52,3.31,2.3,6.2,5.01,8.17,2.7,1.96,6.01,2.75,9.31,2.23,3.31-.53,6.2-2.31,8.17-5.01,1.96-2.71,2.75-6.02,2.23-9.32ZM278.28,216.52c-.26-1.65-.83-3.2-1.68-4.58-.85-1.39-1.97-2.6-3.33-3.58-2.16-1.57-4.7-2.39-7.32-2.39-.66,0-1.33.05-2,.16-3.3.53-6.2,2.3-8.16,5.01-1.96,2.71-2.75,6.02-2.23,9.32.53,3.3,2.31,6.2,5.01,8.16,2.71,1.96,6.01,2.75,9.32,2.23,3.3-.53,6.2-2.31,8.16-5.01,1.97-2.71,2.76-6.02,2.23-9.32ZM278.28,216.52c-.26-1.65-.83-3.2-1.68-4.58-.85-1.39-1.97-2.6-3.33-3.58-2.16-1.57-4.7-2.39-7.32-2.39-.66,0-1.33.05-2,.16-3.3.53-6.2,2.3-8.16,5.01-1.96,2.71-2.75,6.02-2.23,9.32.53,3.3,2.31,6.2,5.01,8.16,2.71,1.96,6.01,2.75,9.32,2.23,3.3-.53,6.2-2.31,8.16-5.01,1.97-2.71,2.76-6.02,2.23-9.32ZM231.55,223.96c-.26-1.65-.84-3.2-1.69-4.58-.85-1.39-1.97-2.6-3.32-3.58-2.16-1.57-4.71-2.39-7.33-2.39-.66,0-1.32.05-1.99.16-3.3.52-6.2,2.3-8.16,5.01-1.97,2.7-2.76,6.01-2.23,9.31.52,3.31,2.3,6.2,5.01,8.17,2.7,1.96,6.01,2.75,9.31,2.23,3.31-.53,6.2-2.31,8.17-5.01,1.96-2.71,2.75-6.02,2.23-9.32ZM231.55,223.96c-.26-1.65-.84-3.2-1.69-4.58-.85-1.39-1.97-2.6-3.32-3.58-2.16-1.57-4.71-2.39-7.33-2.39-.66,0-1.32.05-1.99.16-3.3.52-6.2,2.3-8.16,5.01-1.97,2.7-2.76,6.01-2.23,9.31.52,3.31,2.3,6.2,5.01,8.17,2.7,1.96,6.01,2.75,9.31,2.23,3.31-.53,6.2-2.31,8.17-5.01,1.96-2.71,2.75-6.02,2.23-9.32ZM278.28,216.52c-.26-1.65-.83-3.2-1.68-4.58-.85-1.39-1.97-2.6-3.33-3.58-2.16-1.57-4.7-2.39-7.32-2.39-.66,0-1.33.05-2,.16-3.3.53-6.2,2.3-8.16,5.01-1.96,2.71-2.75,6.02-2.23,9.32.53,3.3,2.31,6.2,5.01,8.16,2.71,1.96,6.01,2.75,9.32,2.23,3.3-.53,6.2-2.31,8.16-5.01,1.97-2.71,2.76-6.02,2.23-9.32ZM231.55,223.96c-.26-1.65-.84-3.2-1.69-4.58-.85-1.39-1.97-2.6-3.32-3.58-2.16-1.57-4.71-2.39-7.33-2.39-.66,0-1.32.05-1.99.16-3.3.52-6.2,2.3-8.16,5.01-1.97,2.7-2.76,6.01-2.23,9.31.52,3.31,2.3,6.2,5.01,8.17,2.7,1.96,6.01,2.75,9.31,2.23,3.31-.53,6.2-2.31,8.17-5.01,1.96-2.71,2.75-6.02,2.23-9.32ZM278.28,216.52c-.26-1.65-.83-3.2-1.68-4.58-.85-1.39-1.97-2.6-3.33-3.58-2.16-1.57-4.7-2.39-7.32-2.39-.66,0-1.33.05-2,.16-3.3.53-6.2,2.3-8.16,5.01-1.96,2.71-2.75,6.02-2.23,9.32.53,3.3,2.31,6.2,5.01,8.16,2.71,1.96,6.01,2.75,9.32,2.23,3.3-.53,6.2-2.31,8.16-5.01,1.97-2.71,2.76-6.02,2.23-9.32ZM231.55,223.96c-.26-1.65-.84-3.2-1.69-4.58-.85-1.39-1.97-2.6-3.32-3.58-2.16-1.57-4.71-2.39-7.33-2.39-.66,0-1.32.05-1.99.16-3.3.52-6.2,2.3-8.16,5.01-1.97,2.7-2.76,6.01-2.23,9.31.52,3.31,2.3,6.2,5.01,8.17,2.7,1.96,6.01,2.75,9.31,2.23,3.31-.53,6.2-2.31,8.17-5.01,1.96-2.71,2.75-6.02,2.23-9.32ZM231.55,223.96c-.26-1.65-.84-3.2-1.69-4.58-.85-1.39-1.97-2.6-3.32-3.58-2.16-1.57-4.71-2.39-7.33-2.39-.66,0-1.32.05-1.99.16-3.3.52-6.2,2.3-8.16,5.01-1.97,2.7-2.76,6.01-2.23,9.31.52,3.31,2.3,6.2,5.01,8.17,2.7,1.96,6.01,2.75,9.31,2.23,3.31-.53,6.2-2.31,8.17-5.01,1.96-2.71,2.75-6.02,2.23-9.32ZM278.28,216.52c-.26-1.65-.83-3.2-1.68-4.58-.85-1.39-1.97-2.6-3.33-3.58-2.16-1.57-4.7-2.39-7.32-2.39-.66,0-1.33.05-2,.16-3.3.53-6.2,2.3-8.16,5.01-1.96,2.71-2.75,6.02-2.23,9.32.53,3.3,2.31,6.2,5.01,8.16,2.71,1.96,6.01,2.75,9.32,2.23,3.3-.53,6.2-2.31,8.16-5.01,1.97-2.71,2.76-6.02,2.23-9.32ZM278.28,216.52c-.26-1.65-.83-3.2-1.68-4.58-.85-1.39-1.97-2.6-3.33-3.58-2.16-1.57-4.7-2.39-7.32-2.39-.66,0-1.33.05-2,.16-3.3.53-6.2,2.3-8.16,5.01-1.96,2.71-2.75,6.02-2.23,9.32.53,3.3,2.31,6.2,5.01,8.16,2.71,1.96,6.01,2.75,9.32,2.23,3.3-.53,6.2-2.31,8.16-5.01,1.97-2.71,2.76-6.02,2.23-9.32ZM231.55,223.96c-.26-1.65-.84-3.2-1.69-4.58-.85-1.39-1.97-2.6-3.32-3.58-2.16-1.57-4.71-2.39-7.33-2.39-.66,0-1.32.05-1.99.16-3.3.52-6.2,2.3-8.16,5.01-1.97,2.7-2.76,6.01-2.23,9.31.52,3.31,2.3,6.2,5.01,8.17,2.7,1.96,6.01,2.75,9.31,2.23,3.31-.53,6.2-2.31,8.17-5.01,1.96-2.71,2.75-6.02,2.23-9.32ZM231.55,223.96c-.26-1.65-.84-3.2-1.69-4.58-.85-1.39-1.97-2.6-3.32-3.58-2.16-1.57-4.71-2.39-7.33-2.39-.66,0-1.32.05-1.99.16-3.3.52-6.2,2.3-8.16,5.01-1.97,2.7-2.76,6.01-2.23,9.31.52,3.31,2.3,6.2,5.01,8.17,2.7,1.96,6.01,2.75,9.31,2.23,3.31-.53,6.2-2.31,8.17-5.01,1.96-2.71,2.75-6.02,2.23-9.32ZM231.55,223.96c-.26-1.65-.84-3.2-1.69-4.58-.85-1.39-1.97-2.6-3.32-3.58-2.16-1.57-4.71-2.39-7.33-2.39-.66,0-1.32.05-1.99.16-3.3.52-6.2,2.3-8.16,5.01-1.97,2.7-2.76,6.01-2.23,9.31.52,3.31,2.3,6.2,5.01,8.17,2.7,1.96,6.01,2.75,9.31,2.23,3.31-.53,6.2-2.31,8.17-5.01,1.96-2.71,2.75-6.02,2.23-9.32ZM231.55,223.96c-.26-1.65-.84-3.2-1.69-4.58-.85-1.39-1.97-2.6-3.32-3.58-2.16-1.57-4.71-2.39-7.33-2.39-.66,0-1.32.05-1.99.16-3.3.52-6.2,2.3-8.16,5.01-1.97,2.7-2.76,6.01-2.23,9.31.52,3.31,2.3,6.2,5.01,8.17,2.7,1.96,6.01,2.75,9.31,2.23,3.31-.53,6.2-2.31,8.17-5.01,1.96-2.71,2.75-6.02,2.23-9.32ZM231.55,223.96c-.26-1.65-.84-3.2-1.69-4.58-.85-1.39-1.97-2.6-3.32-3.58-2.16-1.57-4.71-2.39-7.33-2.39-.66,0-1.32.05-1.99.16-3.3.52-6.2,2.3-8.16,5.01-1.97,2.7-2.76,6.01-2.23,9.31.52,3.31,2.3,6.2,5.01,8.17,2.7,1.96,6.01,2.75,9.31,2.23,3.31-.53,6.2-2.31,8.17-5.01,1.96-2.71,2.75-6.02,2.23-9.32Z"/><path class="cls-1" d="M174.38,245.57c-6.81,1.08-13.24-3.58-14.33-10.39-1.08-6.82,3.58-13.24,10.4-14.33.66-.1,1.32-.15,1.97-.15,6.04,0,11.37,4.39,12.35,10.55,1.09,6.81-3.58,13.24-10.39,14.32Z"/><path class="cls-1" d="M229.32,233.28c-1.97,2.7-4.86,4.48-8.17,5.01-3.3.52-6.61-.27-9.31-2.23-2.71-1.97-4.49-4.86-5.01-8.17-.53-3.3.26-6.61,2.23-9.31,1.96-2.71,4.86-4.49,8.16-5.01.67-.11,1.33-.16,1.99-.16,2.62,0,5.17.82,7.33,2.39,1.35.98,2.47,2.19,3.32,3.58.85,1.38,1.43,2.93,1.69,4.58.52,3.3-.27,6.61-2.23,9.32Z"/><path class="cls-1" d="M276.05,225.84c-1.96,2.7-4.86,4.48-8.16,5.01-3.31.52-6.61-.27-9.32-2.23-2.7-1.96-4.48-4.86-5.01-8.16-.52-3.3.27-6.61,2.23-9.32,1.96-2.71,4.86-4.48,8.16-5.01.67-.11,1.34-.16,2-.16,2.62,0,5.16.82,7.32,2.39,1.36.98,2.48,2.19,3.33,3.58.85,1.38,1.42,2.93,1.68,4.58.53,3.3-.26,6.61-2.23,9.32Z"/><path class="cls-1" d="M280.76,118.55c-.79.34-1.58.69-2.39,1.04-.79.34-1.6.69-2.41,1.03-.97.42-1.95.84-2.94,1.26-.81.35-1.62.7-2.45,1.05-.81.35-1.63.69-2.45,1.05-16.75-17-40.43-16.96-51.72-10.04-13.95,8.3-19.1,22.78-13.49,37.34-.77.32-1.54.64-2.3.97-.78.32-1.55.64-2.32.96-.93.4-1.85.78-2.77,1.17-.77.33-1.54.65-2.3.97-.78.33-1.54.66-2.31.98-7.97-20.34-.46-42.08,18.77-53.52,16.26-9.99,49.71-9.9,71.08,15.74Z"/><path class="cls-1" d="M343.08,212.5c-2.76-15.77-6.76-30.37-12-45.73-9.02-26.34-20.08-45.82-29.51-51.58-5.09-3.19-9.96-1.51-15.28.95-1.79.79-3.63,1.59-5.53,2.41-.79.34-1.58.69-2.39,1.04-.79.34-1.6.69-2.41,1.03-.97.42-1.95.84-2.94,1.26-.81.35-1.62.7-2.45,1.05-.81.35-1.63.69-2.45,1.05-19.9,8.45-43.4,18.14-65.21,27.3.26.67.54,1.34.84,2.01.13.29.26.57.4.87,3.18,6.8,8.03,11.26,14.17,16.91l.86.8c.82.75,1.64,1.51,2.48,2.3,10.04,8.95,21.61,17.82,31.85,25.52,2.64-1.76,5.65-2.93,8.87-3.45,5.94-.94,11.89.48,16.76,4.01,4.87,3.54,8.07,8.75,9.02,14.69.19,1.2.28,2.39.28,3.58,0,4.71-1.47,9.29-4.29,13.18-3.53,4.87-8.75,8.07-14.69,9.01-1.2.2-2.4.29-3.59.29-4.71,0-9.28-1.48-13.17-4.3-4.87-3.53-8.07-8.74-9.01-14.68-.68-4.24-.15-8.48,1.5-12.33-10.82-8.13-22.17-16.89-32.27-25.89l-.19-.18c-.72-.68-1.49-1.39-2.25-2.09l-.97-.9c-6.62-6.09-12.87-11.85-17.1-20.89-.2-.42-.4-.85-.6-1.28-.32-.71-.62-1.42-.9-2.13-16.06,6.8-30.55,13.09-41.13,18.09-5.17,2.44-9.42,6.55-11.77,11.76-3.38,7.53-3.94,16.77-4.19,27.03-.19,8.11,1.75,19.77,4.5,32.34,1,4.56,1.8,9.17,2.43,13.79l2.17,15.9c1.49,10.95,1.49,22.06,0,33.01l-3.29,24.15c-.13.97.98,1.61,1.75,1.01l19.27-14.93c.09-.07.17-.13.26-.2,13.12-10.1,29.05-15.86,45.57-16.88,26.48-1.64,63.38-3.95,86.44-5.35,15.2-.94,27.82-1.72,34.55-2.14,3-.23,6.03-.19,8.82-1.17l.07-.03c18.1-7.91,9.82-62.22,6.71-80.21ZM154.19,219.98c3.53-4.87,8.74-8.07,14.68-9.01,12.28-1.96,23.83,6.43,25.78,18.69.19,1.19.28,2.38.28,3.55,0,10.87-7.91,20.47-18.98,22.23-1.19.19-2.38.28-3.55.28-10.87,0-20.46-7.91-22.22-18.98-.95-5.94.48-11.89,4.01-16.76ZM235.33,241.63c-2.98,3.11-9.03,6.07-13.3,6.63-.97.13-1.94.19-2.9.19-4.71,0-9.29-1.48-13.17-4.3-4.87-3.53-8.07-8.75-9.02-14.69-.94-5.93.48-11.89,4.01-16.75,4.07-5.62,10.4-9.02,17.49-9.3,3.88-.15,7.76.74,11.19,2.56,6.43,3.41,10.68,9.42,11.79,16.42,1.12,6.99-1.06,14-6.09,19.24ZM335.23,277c-7.47,1.75-21.34-30.17-30.98-71.3-9.64-41.13-11.4-75.89-3.93-77.64,7.47-1.75,21.34,30.17,30.98,71.3,9.64,41.13,11.4,75.89,3.93,77.64Z"/></svg>